<?xml version="1.0" encoding="utf-8"?>
<!-- Generator: Adobe Illustrator 21.0.2, SVG Export Plug-In . SVG Version: 6.00 Build 0)  -->
<svg version="1.1" id="Black_Logo" xmlns="http://www.w3.org/2000/svg" xmlns:xlink="http://www.w3.org/1999/xlink" x="0px" y="0px"
	 viewBox="0 0 425 185" style="enable-background:new 0 0 425 185;" xml:space="preserve">
<title>District01</title>
<g id="Letters">
	<path d="M58.1,76.7c2.2,0,4.4,0.3,6.5,1.1c2,0.7,3.8,1.9,5.2,3.4c1.5,1.6,2.7,3.5,3.5,5.6c0.9,2.5,1.3,5.2,1.2,7.9
		c0,2.5-0.3,4.9-1,7.3c-0.6,2.1-1.7,4.1-3.1,5.8c-1.4,1.7-3.2,3-5.2,3.8c-2.3,1-4.8,1.4-7.3,1.4H42.4V76.7L58.1,76.7L58.1,76.7z
		 M57.5,106.3c1.2,0,2.3-0.2,3.4-0.6c1.1-0.4,2.1-1,2.9-1.9c0.9-1,1.6-2.1,2-3.4c0.5-1.6,0.8-3.4,0.8-5.1c0-1.7-0.2-3.4-0.5-5
		c-0.3-1.4-0.9-2.7-1.8-3.8c-0.8-1.1-2-1.9-3.2-2.4c-1.6-0.6-3.3-0.9-5-0.9h-5.6v22.9L57.5,106.3L57.5,106.3z"/>
	<path d="M92.6,76.7V113h-8V76.7H92.6z"/>
	<path d="M110.4,104.1c0.4,0.8,1,1.5,1.8,2c0.8,0.6,1.6,1,2.6,1.2c1,0.3,2,0.4,3.1,0.4c0.8,0,1.5-0.1,2.3-0.2
		c0.8-0.1,1.6-0.4,2.3-0.7c0.7-0.3,1.3-0.8,1.8-1.4c0.5-0.6,0.8-1.5,0.7-2.3c0-0.9-0.3-1.8-0.9-2.4c-0.7-0.7-1.6-1.2-2.5-1.5
		c-1.1-0.4-2.3-0.8-3.5-1.1c-1.3-0.3-2.6-0.6-3.9-1c-1.4-0.3-2.7-0.8-4-1.3c-1.2-0.5-2.4-1.1-3.5-1.9c-1-0.8-1.9-1.8-2.5-2.9
		c-0.7-1.3-1-2.8-0.9-4.3c0-1.7,0.4-3.4,1.2-4.8c0.8-1.4,1.8-2.5,3.1-3.4c1.3-0.9,2.8-1.6,4.3-2c1.6-0.4,3.2-0.7,4.9-0.7
		c1.8,0,3.7,0.2,5.5,0.6c1.7,0.4,3.2,1.1,4.7,2c1.4,0.9,2.5,2.2,3.2,3.6c0.8,1.7,1.3,3.5,1.2,5.4h-7.7c-0.1-0.9-0.3-1.9-0.7-2.7
		c-0.4-0.7-0.9-1.3-1.6-1.7c-0.7-0.4-1.4-0.7-2.2-0.8c-0.9-0.2-1.8-0.3-2.7-0.3c-0.7,0-1.3,0.1-2,0.2c-0.6,0.1-1.2,0.4-1.8,0.7
		c-0.5,0.3-1,0.8-1.3,1.3c-0.4,0.6-0.5,1.3-0.5,2c0,0.6,0.1,1.2,0.4,1.7c0.4,0.6,1,1,1.6,1.2c1.1,0.5,2.2,0.8,3.3,1.1
		c1.4,0.4,3.2,0.8,5.5,1.4c0.7,0.1,1.6,0.4,2.8,0.8c1.3,0.4,2.5,1,3.6,1.7c1.2,0.8,2.3,1.9,3.1,3.1c0.9,1.5,1.4,3.2,1.3,5
		c0,1.6-0.3,3.2-1,4.6c-0.7,1.4-1.6,2.7-2.9,3.7c-1.4,1.1-2.9,1.9-4.6,2.5c-2.1,0.6-4.3,0.9-6.5,0.8c-2,0-3.9-0.3-5.8-0.8
		c-1.8-0.4-3.5-1.2-5-2.3c-3.1-2.3-4.9-6-4.6-9.8h7.7C109.7,102,109.9,103.1,110.4,104.1z"/>
	<path d="M139,83.4v-6.7h29.8v6.7h-10.9V113h-8V83.4H139z"/>
	<path d="M197.1,76.7c1.5,0,3,0.2,4.4,0.8c1.3,0.5,2.4,1.2,3.4,2.2c0.9,0.9,1.7,2,2.1,3.2c0.5,1.2,0.8,2.6,0.8,3.9
		c0.1,1.9-0.4,3.8-1.3,5.6c-1,1.7-2.6,2.9-4.4,3.6V96c0.9,0.2,1.7,0.6,2.4,1.2c0.6,0.6,1.2,1.2,1.6,2c0.4,0.8,0.7,1.6,0.9,2.5
		c0.2,0.9,0.3,1.8,0.4,2.8c0,0.6,0.1,1.2,0.1,2s0.1,1.6,0.2,2.4c0.1,0.8,0.2,1.5,0.4,2.3c0.2,0.7,0.4,1.3,0.8,1.9h-8
		c-0.5-1.3-0.8-2.7-0.8-4.1c-0.1-1.6-0.3-3.1-0.4-4.6c-0.1-1.5-0.7-3-1.7-4.2c-1.2-1-2.8-1.5-4.3-1.3h-8v14.2h-8V76.8L197.1,76.7
		L197.1,76.7z M194.3,93.1c1.5,0.1,2.9-0.3,4.1-1.2c1-1.1,1.5-2.5,1.4-4c0.1-1.4-0.4-2.8-1.4-3.8c-1.2-0.9-2.7-1.3-4.1-1.2h-8.8
		v10.2H194.3z"/>
	<path d="M226.8,76.7V113h-8V76.7H226.8z"/>
	<path d="M261.7,86.4c-0.5-0.8-1.1-1.4-1.8-2c-0.7-0.6-1.5-1-2.4-1.3c-0.9-0.3-1.9-0.5-2.8-0.5c-1.6,0-3.2,0.3-4.6,1
		c-1.2,0.7-2.3,1.6-3.1,2.8c-0.8,1.2-1.4,2.6-1.7,4c-0.4,1.5-0.5,3.1-0.5,4.6c0,1.5,0.2,3,0.5,4.4c0.3,1.4,0.9,2.7,1.7,3.9
		c0.8,1.2,1.8,2.1,3.1,2.8c1.4,0.7,3,1.1,4.6,1c2.1,0.1,4.2-0.7,5.7-2.2c1.4-1.7,2.3-3.7,2.5-5.9h7.7c-0.2,2.1-0.7,4.2-1.5,6.2
		c-0.8,1.8-1.9,3.4-3.4,4.7c-1.4,1.3-3.1,2.3-4.9,2.9c-2,0.7-4.1,1-6.2,1c-2.6,0-5.1-0.5-7.5-1.5c-2.1-0.9-4.1-2.3-5.6-4
		c-1.6-1.7-2.8-3.8-3.5-6c-0.8-2.4-1.2-4.9-1.2-7.4c0-2.6,0.4-5.1,1.2-7.6c0.8-2.2,2-4.3,3.5-6.1c1.6-1.7,3.5-3.1,5.6-4.1
		c4.2-1.7,8.9-1.9,13.2-0.6c1.7,0.6,3.4,1.4,4.8,2.5c1.4,1.1,2.6,2.5,3.5,4.1c1,1.7,1.5,3.6,1.7,5.6h-7.7
		C262.5,87.9,262.1,87.1,261.7,86.4z"/>
	<path d="M277.8,83.4v-6.7h29.8v6.7h-10.9V113h-8V83.4H277.8z"/>
</g>
<path id="_01" d="M377.3,56.4h-48.9c-2.9,0-5.3,2.4-5.3,5.3v61.6c0,2.9,2.4,5.3,5.3,5.3h48.9c2.9,0,5.3-2.4,5.3-5.3V61.7
	C382.6,58.8,380.3,56.4,377.3,56.4C377.3,56.3,377.3,56.3,377.3,56.4z M327.9,114.1h-0.7v-5.5c0.2,0,0.5,0,0.7,0
	c4.4,0,5.1-3.8,5.1-13.7s-0.7-13.7-5.1-13.7c-0.2,0-0.5,0-0.7,0v-5.5h0.7c11.2,0,12.6,8,12.6,19.2S339.1,114.1,327.9,114.1z
	 M363.7,114.1H356V89.2h-9.7v-5.9c5.4,0.1,10.4-1.8,11.2-7.6h6.2L363.7,114.1z"/>
</svg>
