<?xml version="1.0" encoding="utf-8"?>
<!-- Generator: Adobe Illustrator 21.0.2, SVG Export Plug-In . SVG Version: 6.00 Build 0)  -->
<svg version="1.1" xmlns="http://www.w3.org/2000/svg" xmlns:xlink="http://www.w3.org/1999/xlink" x="0px" y="0px"
	 viewBox="0 0 425 425" style="enable-background:new 0 0 425 425;" xml:space="preserve">
<style type="text/css">
	.st0{fill:#FFFFFF;}
</style>
<g id="Black_Logo">
	<g id="Letters_3_">
		<path d="M127.2,70.9c1.7,0,3.3,0.3,4.8,0.8c1.5,0.6,2.8,1.4,3.8,2.5c1.1,1.1,1.9,2.5,2.5,4.1c0.6,1.6,0.9,3.6,0.9,5.7
			c0,1.9-0.3,3.7-0.7,5.3c-0.5,1.6-1.2,3-2.2,4.2c-1,1.2-2.2,2.1-3.8,2.8c-1.5,0.7-3.3,1-5.3,1h-11.4l0-26.5L127.2,70.9L127.2,70.9z
			 M126.8,92.5c0.8,0,1.7-0.1,2.5-0.4c0.8-0.3,1.5-0.7,2.1-1.4c0.6-0.6,1.1-1.5,1.5-2.5c0.4-1,0.6-2.2,0.6-3.7
			c0-1.3-0.1-2.5-0.4-3.6c-0.3-1.1-0.7-2-1.3-2.8c-0.6-0.8-1.4-1.4-2.4-1.8c-1-0.4-2.2-0.6-3.6-0.6h-4.1v16.7L126.8,92.5L126.8,92.5
			z"/>
		<path d="M152.4,70.9l0,26.5h-5.8l0-26.5H152.4L152.4,70.9z"/>
		<path d="M165.4,90.8c0.3,0.6,0.7,1.1,1.3,1.5c0.5,0.4,1.2,0.7,1.9,0.8c0.7,0.2,1.5,0.3,2.2,0.3c0.5,0,1.1,0,1.7-0.1
			c0.6-0.1,1.1-0.3,1.7-0.5c0.5-0.3,0.9-0.6,1.3-1c0.4-0.4,0.5-1,0.5-1.7c0-0.7-0.2-1.3-0.7-1.8c-0.5-0.5-1.1-0.8-1.8-1.1
			c-0.7-0.3-1.6-0.6-2.5-0.8c-0.9-0.2-1.9-0.5-2.9-0.7c-1-0.3-1.9-0.6-2.9-0.9c-0.9-0.4-1.8-0.8-2.5-1.4c-0.7-0.6-1.3-1.3-1.8-2.1
			c-0.5-0.8-0.7-1.9-0.7-3.1c0-1.4,0.3-2.5,0.9-3.5c0.6-1,1.3-1.8,2.3-2.5c0.9-0.7,2-1.2,3.2-1.5c1.2-0.3,2.4-0.5,3.6-0.5
			c1.4,0,2.7,0.2,4,0.5c1.3,0.3,2.4,0.8,3.4,1.5c1,0.7,1.8,1.6,2.4,2.7c0.6,1.1,0.9,2.4,0.9,3.9H175c-0.1-0.8-0.2-1.5-0.5-2
			c-0.3-0.5-0.6-0.9-1.1-1.2c-0.5-0.3-1-0.5-1.6-0.6c-0.6-0.1-1.3-0.2-2-0.2c-0.5,0-0.9,0.1-1.4,0.2c-0.5,0.1-0.9,0.3-1.3,0.5
			c-0.4,0.3-0.7,0.6-0.9,0.9c-0.3,0.4-0.4,0.8-0.4,1.4c0,0.5,0.1,0.9,0.3,1.3c0.2,0.3,0.6,0.6,1.2,0.9c0.6,0.3,1.4,0.6,2.4,0.8
			c1,0.3,2.4,0.6,4,1c0.5,0.1,1.2,0.3,2.1,0.6c0.9,0.3,1.8,0.7,2.6,1.2c0.9,0.6,1.6,1.3,2.2,2.3c0.6,0.9,0.9,2.2,0.9,3.7
			c0,1.2-0.2,2.3-0.7,3.4c-0.5,1-1.2,1.9-2.1,2.7c-0.9,0.7-2.1,1.3-3.4,1.8c-1.4,0.4-2.9,0.6-4.8,0.6c-1.5,0-2.9-0.2-4.2-0.5
			c-1.4-0.4-2.6-0.9-3.6-1.7c-1-0.8-1.9-1.8-2.5-2.9c-0.6-1.2-0.9-2.6-0.9-4.2h5.6C164.9,89.5,165.1,90.2,165.4,90.8z"/>
		<path d="M186.3,75.8l0-4.9H208l0,4.9l-7.9,0v21.6l-5.8,0V75.8H186.3z"/>
		<path d="M228.7,70.9c1.2,0,2.3,0.2,3.2,0.6c0.9,0.4,1.8,0.9,2.5,1.6c0.7,0.7,1.2,1.4,1.6,2.3c0.4,0.9,0.6,1.8,0.6,2.9
			c0,1.6-0.3,2.9-1,4.1c-0.6,1.1-1.7,2-3.2,2.6v0.1c0.7,0.2,1.3,0.5,1.8,0.9c0.5,0.4,0.8,0.9,1.1,1.5c0.3,0.6,0.5,1.2,0.7,1.8
			c0.1,0.7,0.2,1.3,0.3,2c0,0.4,0.1,0.9,0.1,1.5c0,0.6,0.1,1.1,0.1,1.8c0.1,0.6,0.2,1.2,0.3,1.7c0.1,0.5,0.3,1,0.6,1.4l-5.8,0
			c-0.3-0.8-0.5-1.8-0.6-3c-0.1-1.2-0.2-2.3-0.3-3.3c-0.2-1.4-0.6-2.4-1.3-3c-0.6-0.6-1.7-1-3.1-1h-5.8v10.3l-5.8,0l0-26.5
			L228.7,70.9L228.7,70.9z M226.6,82.8c1.3,0,2.3-0.3,3-0.9c0.7-0.6,1-1.6,1-2.9c0-1.3-0.3-2.2-1-2.8c-0.7-0.6-1.7-0.9-3-0.9h-6.4
			v7.5L226.6,82.8L226.6,82.8z"/>
		<path d="M250.3,70.9v26.5h-5.8V70.9H250.3L250.3,70.9z"/>
		<path d="M275.8,77.9c-0.4-0.6-0.8-1-1.3-1.5c-0.5-0.4-1.1-0.7-1.8-1c-0.6-0.2-1.3-0.4-2.1-0.4c-1.3,0-2.4,0.3-3.3,0.7
			c-0.9,0.5-1.7,1.2-2.2,2c-0.6,0.8-1,1.8-1.2,2.9c-0.3,1.1-0.4,2.2-0.4,3.4c0,1.1,0.1,2.2,0.4,3.2c0.3,1,0.7,2,1.2,2.9
			c0.6,0.8,1.3,1.5,2.2,2c0.9,0.5,2,0.7,3.3,0.7c1.8,0,3.2-0.6,4.2-1.6c1-1.1,1.6-2.5,1.8-4.3h5.6c-0.2,1.7-0.5,3.1-1.1,4.5
			c-0.6,1.3-1.4,2.5-2.5,3.4c-1,0.9-2.2,1.7-3.6,2.1c-1.4,0.5-2.9,0.7-4.5,0.7c-2,0-3.9-0.4-5.5-1.1c-1.6-0.7-3-1.7-4.1-2.9
			c-1.1-1.2-2-2.7-2.6-4.4c-0.6-1.7-0.9-3.5-0.9-5.4c0-2,0.3-3.8,0.9-5.5c0.6-1.7,1.5-3.2,2.6-4.4c1.1-1.3,2.5-2.2,4.1-3
			c1.6-0.7,3.4-1.1,5.5-1.1c1.5,0,2.9,0.2,4.1,0.6c1.3,0.4,2.5,1,3.5,1.8c1,0.8,1.9,1.8,2.5,3c0.7,1.2,1.1,2.6,1.3,4.1l-5.6,0
			C276.4,79.1,276.1,78.5,275.8,77.9z"/>
		<path d="M287.5,75.8v-4.9l21.7,0v4.9l-7.9,0v21.6h-5.8l0-21.6L287.5,75.8z"/>
	</g>
	<path id="_x30_1_3_" d="M294.1,113.4H130.9c-9.8,0-17.8,8-17.8,17.8V337c0,9.8,8,17.8,17.8,17.8h163.2c9.8,0,17.8-8,17.8-17.8
		l0-205.8C311.9,121.3,303.9,113.4,294.1,113.4z M134.7,299.9c-0.8,0-1.6,0-2.4,0l0-19c0.8,0.1,1.6,0.1,2.4,0.1
		c15.1,0,17.6-13,17.6-47.2c0-34-2.5-47.2-17.6-47.2c-0.9,0-1.7,0-2.4,0.1l0-19c0.8,0,1.6,0,2.4,0c38.4,0,43.3,27.4,43.3,66
		C177.9,272.5,173.1,299.9,134.7,299.9z M257.8,299.8h-26.8v-85.6h-33.2V194c18.7,0.4,35.8-6,38.6-26.2h21.3V299.8z"/>
</g>
<g id="White_Logo">
	<rect id="bg" x="445" y="0" width="425" height="425"/>
	<g id="Letters_1_">
		<path class="st0" d="M572.2,70.9c1.7,0,3.3,0.3,4.8,0.8c1.5,0.6,2.8,1.4,3.8,2.5c1.1,1.1,1.9,2.5,2.5,4.1c0.6,1.6,0.9,3.6,0.9,5.7
			c0,1.9-0.3,3.7-0.7,5.3c-0.5,1.6-1.2,3-2.2,4.2c-1,1.2-2.2,2.1-3.8,2.8c-1.5,0.7-3.3,1-5.3,1h-11.4l0-26.5L572.2,70.9L572.2,70.9z
			 M571.8,92.5c0.8,0,1.7-0.1,2.5-0.4c0.8-0.3,1.5-0.7,2.1-1.4c0.6-0.6,1.1-1.5,1.5-2.5c0.4-1,0.6-2.2,0.6-3.7
			c0-1.3-0.1-2.5-0.4-3.6c-0.3-1.1-0.7-2-1.3-2.8c-0.6-0.8-1.4-1.4-2.4-1.8c-1-0.4-2.2-0.6-3.6-0.6h-4.1v16.7L571.8,92.5L571.8,92.5
			z"/>
		<path class="st0" d="M597.4,70.9l0,26.5h-5.8V70.9H597.4L597.4,70.9z"/>
		<path class="st0" d="M610.4,90.8c0.3,0.6,0.7,1.1,1.3,1.5c0.5,0.4,1.2,0.7,1.9,0.8c0.7,0.2,1.5,0.3,2.2,0.3c0.5,0,1.1,0,1.7-0.1
			c0.6-0.1,1.1-0.3,1.7-0.5c0.5-0.3,0.9-0.6,1.3-1c0.4-0.4,0.5-1,0.5-1.7c0-0.7-0.2-1.3-0.7-1.8c-0.5-0.5-1.1-0.8-1.8-1.1
			c-0.7-0.3-1.6-0.6-2.5-0.8c-0.9-0.2-1.9-0.5-2.9-0.7c-1-0.3-1.9-0.6-2.9-0.9c-0.9-0.4-1.8-0.8-2.5-1.4c-0.7-0.6-1.3-1.3-1.8-2.1
			c-0.5-0.8-0.7-1.9-0.7-3.1c0-1.4,0.3-2.5,0.9-3.5c0.6-1,1.3-1.8,2.3-2.5c0.9-0.7,2-1.2,3.2-1.5c1.2-0.3,2.4-0.5,3.6-0.5
			c1.4,0,2.7,0.2,4,0.5c1.3,0.3,2.4,0.8,3.4,1.5c1,0.7,1.8,1.6,2.4,2.7c0.6,1.1,0.9,2.4,0.9,3.9H620c-0.1-0.8-0.2-1.5-0.5-2
			c-0.3-0.5-0.6-0.9-1.1-1.2c-0.5-0.3-1-0.5-1.6-0.6c-0.6-0.1-1.3-0.2-2-0.2c-0.5,0-0.9,0.1-1.4,0.2c-0.5,0.1-0.9,0.3-1.3,0.5
			c-0.4,0.3-0.7,0.6-0.9,0.9c-0.3,0.4-0.4,0.8-0.4,1.4c0,0.5,0.1,0.9,0.3,1.3c0.2,0.3,0.6,0.6,1.2,0.9c0.6,0.3,1.4,0.6,2.4,0.8
			c1,0.3,2.4,0.6,4,1c0.5,0.1,1.2,0.3,2.1,0.6c0.9,0.3,1.8,0.7,2.6,1.2c0.9,0.6,1.6,1.3,2.2,2.3c0.6,0.9,0.9,2.2,0.9,3.7
			c0,1.2-0.2,2.3-0.7,3.4c-0.5,1-1.2,1.9-2.1,2.7c-0.9,0.7-2.1,1.3-3.4,1.8c-1.4,0.4-2.9,0.6-4.8,0.6c-1.5,0-2.9-0.2-4.2-0.5
			c-1.4-0.4-2.6-0.9-3.6-1.7s-1.9-1.8-2.5-2.9c-0.6-1.2-0.9-2.6-0.9-4.2h5.6C609.9,89.5,610,90.2,610.4,90.8z"/>
		<path class="st0" d="M631.3,75.8l0-4.9H653l0,4.9l-7.9,0v21.6l-5.8,0V75.8H631.3z"/>
		<path class="st0" d="M673.6,70.9c1.2,0,2.3,0.2,3.2,0.6c0.9,0.4,1.8,0.9,2.5,1.6c0.7,0.7,1.2,1.4,1.6,2.3c0.4,0.9,0.6,1.8,0.6,2.9
			c0,1.6-0.3,2.9-1,4.1c-0.6,1.1-1.7,2-3.2,2.6v0.1c0.7,0.2,1.3,0.5,1.8,0.9c0.5,0.4,0.8,0.9,1.1,1.5c0.3,0.6,0.5,1.2,0.7,1.8
			c0.1,0.7,0.2,1.3,0.3,2c0,0.4,0.1,0.9,0.1,1.5c0,0.6,0.1,1.1,0.1,1.8c0.1,0.6,0.2,1.2,0.3,1.7c0.1,0.5,0.3,1,0.6,1.4l-5.8,0
			c-0.3-0.8-0.5-1.8-0.6-3c-0.1-1.2-0.2-2.3-0.3-3.3c-0.2-1.4-0.6-2.4-1.3-3c-0.6-0.6-1.7-1-3.1-1h-5.8v10.3l-5.8,0l0-26.5
			L673.6,70.9L673.6,70.9z M671.6,82.8c1.3,0,2.3-0.3,3-0.9c0.7-0.6,1-1.6,1-2.9c0-1.3-0.3-2.2-1-2.8c-0.7-0.6-1.7-0.9-3-0.9h-6.4
			v7.5L671.6,82.8L671.6,82.8z"/>
		<path class="st0" d="M695.3,70.9v26.5h-5.8V70.9H695.3L695.3,70.9z"/>
		<path class="st0" d="M720.8,77.9c-0.4-0.6-0.8-1-1.3-1.5c-0.5-0.4-1.1-0.7-1.8-1c-0.6-0.2-1.3-0.4-2.1-0.4c-1.3,0-2.4,0.3-3.3,0.7
			c-0.9,0.5-1.7,1.2-2.2,2c-0.6,0.8-1,1.8-1.2,2.9c-0.3,1.1-0.4,2.2-0.4,3.4c0,1.1,0.1,2.2,0.4,3.2c0.3,1,0.7,2,1.2,2.9
			c0.6,0.8,1.3,1.5,2.2,2c0.9,0.5,2,0.7,3.3,0.7c1.8,0,3.2-0.6,4.2-1.6c1-1.1,1.6-2.5,1.8-4.3h5.6c-0.2,1.7-0.5,3.1-1.1,4.5
			c-0.6,1.3-1.4,2.5-2.5,3.4c-1,0.9-2.2,1.7-3.6,2.1c-1.4,0.5-2.9,0.7-4.5,0.7c-2,0-3.9-0.4-5.5-1.1c-1.6-0.7-3-1.7-4.1-2.9
			c-1.1-1.2-2-2.7-2.6-4.4c-0.6-1.7-0.9-3.5-0.9-5.4c0-2,0.3-3.8,0.9-5.5c0.6-1.7,1.5-3.2,2.6-4.4c1.1-1.3,2.5-2.2,4.1-3
			c1.6-0.7,3.4-1.1,5.5-1.1c1.5,0,2.9,0.2,4.1,0.6c1.3,0.4,2.5,1,3.5,1.8c1,0.8,1.9,1.8,2.5,3c0.7,1.2,1.1,2.6,1.3,4.1l-5.6,0
			C721.3,79.1,721.1,78.5,720.8,77.9z"/>
		<path class="st0" d="M732.5,75.8v-4.9l21.7,0v4.9l-7.9,0v21.6h-5.8l0-21.6L732.5,75.8z"/>
	</g>
	<path id="_x30_1_1_" class="st0" d="M739.1,113.4H575.9c-9.8,0-17.8,8-17.8,17.8V337c0,9.8,8,17.8,17.8,17.8h163.2
		c9.8,0,17.8-8,17.8-17.8l0-205.8C756.9,121.3,748.9,113.4,739.1,113.4z M579.7,299.9c-0.8,0-1.6,0-2.4,0l0-19
		c0.8,0.1,1.6,0.1,2.4,0.1c15.1,0,17.6-13,17.6-47.2c0-34-2.5-47.2-17.6-47.2c-0.9,0-1.7,0-2.4,0.1l0-19c0.8,0,1.6,0,2.4,0
		c38.4,0,43.3,27.4,43.3,66C622.9,272.5,618.1,299.9,579.7,299.9z M702.8,299.8h-26.8v-85.6h-33.2V194c18.7,0.4,35.8-6,38.6-26.2
		h21.3V299.8z"/>
</g>
</svg>
