<?xml version="1.0" standalone="no"?>
<!DOCTYPE svg PUBLIC "-//W3C//DTD SVG 20010904//EN"
 "http://www.w3.org/TR/2001/REC-SVG-20010904/DTD/svg10.dtd">
<svg version="1.0" xmlns="http://www.w3.org/2000/svg"
 width="310.000000pt" height="310.000000pt" viewBox="0 0 310.000000 310.000000"
 preserveAspectRatio="xMidYMid meet">
<metadata>
Created by potrace 1.11, written by Peter Selinger 2001-2013
</metadata>
<g transform="translate(0.000000,310.000000) scale(0.100000,-0.100000)"
fill="#000000" stroke="none">
<path d="M1970 2589 c0 -6 -4 -7 -10 -4 -15 10 -70 -27 -70 -47 0 -10 -6 -18
-12 -18 -9 0 -8 -4 2 -10 12 -8 12 -10 1 -10 -11 0 -11 -3 0 -17 12 -15 12
-16 -1 -8 -13 8 -13 7 -1 -8 8 -10 11 -20 8 -23 -8 -8 18 -34 32 -34 6 0 11
-4 11 -10 0 -11 33 -13 79 -4 17 4 28 10 25 15 -3 5 -1 9 4 9 5 0 12 9 15 20
3 11 1 20 -5 20 -5 0 -6 4 -3 10 3 6 -1 7 -9 4 -9 -3 -13 -11 -9 -17 4 -6 0
-8 -11 -4 -9 4 -14 3 -11 -2 6 -10 -11 -24 -33 -27 -36 -6 -68 92 -34 104 6 2
10 8 6 13 -3 5 11 9 31 9 20 0 34 -4 31 -9 -9 -14 25 -22 41 -10 11 10 10 15
-6 31 -26 24 -71 41 -71 27z"/>
<path d="M845 2577 c-11 -9 -14 -16 -7 -20 5 -4 8 -17 4 -29 -4 -16 -2 -19 9
-13 11 7 12 6 3 -6 -6 -8 -10 -33 -9 -56 1 -29 -1 -40 -9 -36 -6 4 -5 0 2 -9
17 -21 131 -22 139 -1 3 7 10 10 16 6 5 -3 7 -1 4 4 -4 6 0 16 7 22 8 7 13 24
11 39 -2 15 -4 37 -4 50 -1 13 -5 20 -11 17 -5 -3 -10 1 -10 9 0 14 -12 20
-32 17 -5 0 -8 3 -8 7 0 4 -16 8 -35 8 -19 0 -35 -5 -35 -11 0 -5 -4 -4 -8 2
-7 10 -12 10 -27 0z m127 -84 c2 -18 0 -33 -5 -33 -4 0 -5 -4 -2 -10 3 -5 -1
-10 -10 -10 -9 0 -14 -4 -11 -9 6 -9 -42 -6 -51 3 -11 10 -5 111 6 109 6 -2
11 2 11 8 0 5 13 3 29 -7 21 -12 30 -27 33 -51z"/>
<path d="M1074 2573 c-2 -7 -6 -20 -9 -28 -2 -8 1 -15 7 -15 7 0 6 -5 -2 -15
-10 -12 -10 -15 1 -15 11 0 11 -2 -1 -10 -13 -9 -13 -11 0 -20 8 -5 10 -10 5
-10 -7 0 -9 -15 -7 -35 3 -25 9 -35 22 -35 21 0 32 34 17 49 -6 6 -7 11 -1 11
5 0 9 27 9 60 0 33 -4 60 -8 60 -5 0 -6 4 -3 8 3 5 -2 9 -10 9 -9 0 -18 -6
-20 -14z"/>
<path d="M1182 2563 c-15 -17 -19 -29 -13 -37 5 -6 9 -15 9 -21 0 -5 20 -17
46 -25 41 -13 51 -24 44 -47 -2 -5 -9 -7 -15 -7 -7 1 -10 -2 -7 -7 3 -5 0 -9
-5 -9 -6 0 -11 5 -11 10 0 6 -7 10 -16 10 -8 0 -12 5 -9 10 3 6 3 10 -2 11 -4
0 -16 2 -25 4 -22 4 -15 -31 11 -54 29 -25 101 -20 120 9 17 26 25 64 12 56
-5 -3 -11 3 -14 14 -5 18 -29 26 -60 21 -5 -1 -5 4 -1 10 5 8 2 10 -8 7 -8 -4
-20 2 -27 14 -7 11 -8 17 -2 13 6 -3 11 -2 11 4 0 5 11 6 28 2 15 -5 26 -12
25 -18 -1 -5 7 -10 18 -10 25 -2 26 42 2 52 -43 18 -89 13 -111 -12z"/>
<path d="M1359 2579 c-10 -6 -10 -9 -1 -9 6 0 11 -6 10 -12 -2 -8 6 -12 20
-10 21 3 25 -2 25 -40 0 -10 4 -18 10 -18 6 0 2 -7 -9 -16 -10 -8 -13 -13 -7
-9 9 4 12 -5 10 -32 -2 -33 1 -38 22 -41 20 -3 23 0 18 17 -3 12 -1 21 3 21 5
0 5 14 0 30 -5 19 -5 30 1 30 6 0 6 8 -1 20 -8 15 -6 21 9 30 11 5 26 10 34
10 24 0 13 33 -12 37 -15 2 -20 -1 -15 -9 5 -7 3 -8 -7 -3 -19 12 -49 14 -55
3 -3 -4 -13 -4 -23 1 -10 6 -23 6 -32 0z"/>
<path d="M1572 2573 c-5 -10 -7 -37 -6 -61 2 -30 -1 -40 -9 -35 -8 5 -8 2 0
-8 7 -9 11 -25 8 -37 -4 -24 21 -56 36 -46 5 3 7 10 4 15 -4 5 -1 9 5 9 8 0 8
6 0 20 -8 14 -8 20 0 20 6 0 8 6 4 13 -5 7 0 6 11 -3 11 -9 16 -10 11 -2 -11
18 8 15 31 -5 11 -10 19 -25 18 -34 -2 -9 1 -23 6 -30 6 -10 9 -10 9 -2 0 7 7
10 16 6 13 -5 15 0 12 23 -1 16 -9 35 -15 42 -16 17 -17 36 -1 26 8 -5 9 -2 5
9 -3 10 -2 17 3 17 13 0 7 34 -9 53 -7 9 -19 13 -27 10 -8 -3 -14 -1 -14 4 0
12 -38 14 -45 2 -4 -5 -14 -5 -25 1 -15 8 -21 6 -28 -7z m103 -48 c-2 -11 -4
-23 -4 -26 -1 -10 -51 -5 -51 4 0 5 -4 6 -8 3 -7 -4 -8 23 -3 42 1 1 17 2 36
0 29 -2 34 -5 30 -23z"/>
<path d="M1789 2578 c-3 -19 -5 -24 -12 -35 -5 -8 -4 -13 2 -13 13 0 10 -42
-4 -52 -6 -5 -6 -8 2 -8 13 0 12 -37 -2 -60 -4 -8 -5 -12 0 -8 4 4 14 0 21
-10 9 -11 13 -13 14 -4 0 7 4 11 8 8 7 -4 9 158 3 185 -2 9 -31 7 -32 -3z"/>
<path d="M2110 2581 c-8 -3 -16 -12 -18 -19 -1 -8 2 -11 8 -7 5 3 10 2 10 -4
0 -6 7 -8 15 -5 8 4 15 1 15 -6 0 -6 5 -8 10 -5 14 9 12 -8 -2 -24 -9 -10 -9
-12 -1 -7 6 3 14 2 18 -4 3 -5 2 -10 -3 -10 -5 0 -9 -18 -9 -40 0 -22 5 -40
11 -40 6 0 4 -5 -4 -10 -12 -7 -8 -10 14 -10 16 0 26 3 23 6 -3 4 -2 15 3 25
6 11 6 20 1 24 -12 7 -10 45 1 45 5 0 4 9 -2 20 -8 15 -8 20 1 20 6 0 9 6 6
14 -5 11 0 13 22 6 25 -7 27 -5 24 15 -4 19 -11 22 -49 20 -24 -1 -47 -4 -50
-8 -4 -4 -12 -3 -18 2 -6 5 -18 6 -26 2z"/>
<path d="M928 2272 c-16 -2 -28 -8 -28 -14 0 -6 -3 -8 -7 -5 -8 9 -64 -53 -57
-64 3 -5 2 -9 -3 -9 -7 0 -10 -1547 -3 -1575 1 -5 2 -13 1 -17 0 -5 3 -8 9 -8
5 0 10 -7 10 -15 0 -8 6 -15 14 -15 8 0 17 -7 20 -16 4 -9 13 -14 21 -10 8 3
15 1 15 -3 0 -5 16 -8 35 -7 19 1 35 -2 35 -7 0 -4 5 -5 11 -2 16 11 129 11
129 1 0 -5 6 -4 13 2 6 5 21 6 32 2 11 -4 31 -2 44 4 19 8 25 8 29 -2 2 -7 9
-9 14 -6 17 10 108 10 108 0 0 -5 6 -4 13 2 6 5 21 6 32 2 11 -4 31 -2 44 4
19 8 25 8 29 -2 2 -7 9 -9 14 -6 17 10 108 10 108 0 0 -5 6 -4 13 2 6 5 21 6
32 2 11 -4 31 -2 44 4 19 8 25 8 29 -2 2 -7 9 -9 14 -6 17 10 108 10 108 0 0
-5 6 -4 13 2 6 5 21 6 32 2 11 -4 31 -2 44 4 19 8 25 8 29 -2 2 -7 9 -9 14 -6
16 10 108 10 108 1 0 -5 5 -5 11 -1 7 4 29 8 50 8 42 2 87 30 105 64 6 12 13
20 15 18 2 -2 4 61 4 140 0 89 4 144 10 144 6 0 6 3 -1 8 -13 9 -13 304 1 314
7 5 7 8 0 8 -14 0 -14 310 0 310 6 0 6 3 -1 8 -13 9 -13 304 1 314 7 5 7 8 0
8 -7 0 -10 54 -10 158 2 193 -9 224 -89 257 -43 18 -49 19 -40 3 5 -7 3 -8 -6
-3 -20 12 -171 14 -163 2 4 -6 1 -7 -8 -2 -17 11 -819 13 -819 2 0 -4 -6 -5
-12 0 -13 7 -158 11 -210 5z m164 -408 c7 -5 22 -10 33 -11 11 -2 22 -8 23
-13 2 -6 9 -10 16 -10 15 0 82 -78 79 -91 -2 -5 2 -9 8 -9 6 0 9 -6 6 -14 -3
-8 -2 -16 3 -18 5 -2 11 -19 12 -40 2 -20 6 -34 9 -32 6 4 11 -57 13 -153 0
-35 5 -63 10 -63 4 0 3 -7 -4 -15 -10 -12 -10 -19 -2 -27 6 -6 8 -18 3 -27 -4
-9 -7 -38 -7 -64 1 -27 -2 -51 -6 -53 -4 -3 -5 -11 -2 -18 3 -8 2 -16 -3 -19
-5 -3 -8 -22 -8 -41 1 -20 -2 -36 -7 -36 -4 0 -8 -9 -8 -19 0 -11 -5 -23 -10
-26 -6 -4 -8 -11 -5 -16 4 -5 3 -9 -2 -9 -4 0 -16 -14 -25 -30 -9 -17 -29 -35
-43 -40 -14 -5 -25 -14 -25 -19 0 -9 -42 -24 -70 -25 -8 0 -18 -5 -22 -11 -5
-6 -8 -5 -8 4 0 10 -3 11 -14 2 -16 -13 -66 -11 -67 4 -1 5 -2 21 -3 35 0 14
-5 31 -10 39 -7 10 -6 12 4 6 10 -6 12 -4 7 8 -3 10 -2 17 4 17 6 0 7 5 4 10
-6 9 8 15 29 11 5 -1 13 4 17 11 7 11 9 11 9 0 0 -7 5 -10 10 -7 6 4 8 11 5
16 -4 5 0 9 7 9 16 0 41 37 33 50 -4 6 1 13 10 16 12 5 13 9 4 20 -9 11 -8 14
1 14 10 0 10 3 1 14 -8 9 -8 16 -2 20 6 4 7 14 4 23 -5 12 -3 14 8 8 12 -7 12
-6 1 7 -8 11 -9 18 -3 22 7 5 7 15 1 31 -5 14 -6 25 -2 25 7 0 8 140 1 156 -2
5 -4 33 -4 62 0 28 -2 52 -5 52 -3 0 -6 17 -7 37 -1 22 -9 43 -19 50 -10 7
-14 13 -9 13 18 0 -35 31 -55 33 -11 1 -20 6 -20 12 0 5 -5 3 -10 -5 -8 -13
-10 -12 -11 5 -4 73 -3 111 3 121 9 12 99 11 120 -2z m797 7 c2 0 -2 -8 -9
-16 -10 -12 -10 -15 0 -15 10 0 10 -3 0 -15 -10 -12 -10 -15 1 -15 9 0 10 -3
4 -8 -13 -9 -16 -42 -4 -42 6 0 5 -10 -2 -21 -8 -15 -8 -19 0 -15 8 5 8 0 1
-18 -5 -15 -5 -28 0 -31 8 -5 4 -50 -6 -67 -3 -4 0 -8 7 -8 8 0 8 -4 -1 -15
-10 -12 -10 -15 1 -15 9 0 10 -3 4 -8 -13 -9 -16 -42 -4 -42 6 0 5 -10 -2 -21
-8 -15 -8 -19 0 -15 8 5 8 0 1 -18 -5 -15 -5 -28 0 -31 8 -5 4 -50 -6 -67 -3
-4 0 -8 7 -8 8 0 8 -4 -1 -15 -10 -12 -10 -15 1 -15 9 0 10 -3 4 -8 -13 -9
-16 -42 -4 -42 6 0 5 -10 -2 -21 -8 -15 -8 -19 0 -15 8 5 8 0 1 -18 -5 -15 -5
-28 0 -31 8 -5 4 -50 -6 -67 -3 -4 0 -8 7 -8 8 0 8 -4 -1 -15 -10 -12 -10 -15
1 -15 9 0 10 -3 4 -8 -13 -9 -16 -42 -4 -42 6 0 5 -10 -2 -21 -8 -15 -8 -19 0
-15 8 5 8 0 2 -17 -7 -17 -6 -29 2 -37 9 -10 9 -11 -1 -6 -9 6 -11 1 -8 -18 4
-22 2 -25 -13 -17 -20 11 -70 9 -90 -3 -9 -6 -12 -5 -7 2 3 6 2 13 -4 17 -5 3
-10 1 -10 -4 0 -12 -59 -15 -61 -3 -6 51 -3 219 5 215 5 -3 6 -1 2 6 -14 21
-18 63 -5 56 8 -5 8 -2 2 11 -5 11 -9 61 -8 112 1 60 -2 92 -9 92 -8 0 -8 2 0
8 5 4 10 30 10 59 0 43 -4 53 -21 61 -12 6 -28 6 -35 2 -7 -5 -24 -4 -37 1
-17 6 -22 6 -17 -2 5 -8 1 -8 -13 0 -11 6 -23 7 -27 4 -10 -10 -46 -11 -52 -1
-3 5 -12 4 -20 -3 -13 -11 -17 -3 -13 27 0 4 -5 11 -13 15 -7 5 -8 9 -2 9 13
0 13 50 0 50 -6 0 -5 4 2 9 8 4 13 11 13 15 -1 3 -1 9 -1 14 0 4 23 8 51 10
28 1 56 5 62 9 7 4 20 9 30 10 10 2 27 12 39 23 12 10 25 17 30 14 4 -3 8 0 8
5 0 6 9 20 20 31 12 12 18 25 15 30 -4 6 -2 10 4 10 6 0 8 7 5 15 -4 8 -1 15
5 15 6 0 11 6 11 13 0 10 19 13 78 11 42 -1 79 -2 81 -3z"/>
</g>
</svg>
