<?xml version="1.0" standalone="no"?>
<!DOCTYPE svg PUBLIC "-//W3C//DTD SVG 20010904//EN"
 "http://www.w3.org/TR/2001/REC-SVG-20010904/DTD/svg10.dtd">
<svg version="1.0" xmlns="http://www.w3.org/2000/svg"
 width="700.000000pt" height="700.000000pt" viewBox="0 0 700.000000 700.000000"
 preserveAspectRatio="xMidYMid meet">
<metadata>
Created by potrace 1.11, written by Peter Selinger 2001-2013
</metadata>
<g transform="translate(0.000000,700.000000) scale(0.100000,-0.100000)"
fill="#000000" stroke="none">
<path d="M0 3500 l0 -3500 3500 0 3500 0 0 3500 0 3500 -3500 0 -3500 0 0
-3500z m4565 2320 c35 -21 75 -83 75 -115 0 -11 -11 -15 -45 -15 -25 0 -45 5
-45 10 0 6 -11 22 -25 35 -36 37 -106 35 -145 -3 -55 -55 -52 -172 7 -231 30
-30 38 -33 74 -28 48 6 68 21 86 65 12 29 17 32 58 32 44 0 45 -1 39 -27 -42
-175 -272 -205 -369 -49 -27 44 -30 58 -30 125 0 59 5 85 23 118 24 45 74 89
119 103 46 15 138 5 178 -20z m-1665 2 c37 -18 80 -74 80 -103 0 -16 -8 -19
-49 -19 -39 0 -50 4 -54 19 -14 54 -116 66 -139 16 -16 -35 1 -50 80 -71 135
-35 180 -77 169 -157 -10 -76 -75 -119 -178 -119 -106 0 -179 51 -179 127 0
23 4 25 39 25 34 0 42 -4 53 -27 24 -52 122 -68 162 -27 39 38 12 65 -101 99
-102 32 -143 66 -143 122 0 82 62 132 165 133 38 0 73 -6 95 -18z m-713 -11
c26 -12 52 -35 70 -62 26 -39 28 -50 28 -134 0 -84 -2 -95 -28 -134 -43 -65
-87 -81 -229 -81 l-118 0 0 215 0 215 118 0 c93 0 125 -4 159 -19z m323 -196
l0 -215 -50 0 -50 0 0 215 0 215 50 0 50 0 0 -215z m920 175 l0 -40 -65 0 -65
0 0 -175 0 -175 -50 0 -50 0 0 175 0 175 -65 0 -65 0 0 40 0 40 180 0 180 0 0
-40z m399 26 c41 -21 61 -59 61 -111 0 -38 -5 -52 -30 -76 l-30 -30 26 -22
c21 -19 27 -35 34 -94 4 -39 11 -76 14 -82 5 -7 -9 -11 -42 -11 -47 0 -50 1
-56 31 -3 17 -6 44 -6 59 0 15 -9 39 -21 54 -18 23 -27 26 -85 26 l-64 0 0
-86 0 -85 -47 3 -48 3 -3 205 c-1 112 0 210 2 217 8 19 257 18 295 -1z m291
-201 l0 -215 -45 0 -45 0 0 215 0 215 45 0 45 0 0 -215z m970 175 l0 -40 -65
0 -65 0 0 -175 0 -175 -45 0 -45 0 0 175 0 175 -65 0 -65 0 0 40 0 40 175 0
175 0 0 -40z m-120 -688 c63 -33 115 -86 142 -146 l23 -51 0 -1760 0 -1760
-24 -53 c-14 -31 -43 -70 -72 -96 -91 -82 28 -76 -1539 -76 -1567 0 -1448 -6
-1539 76 -29 26 -58 65 -72 96 l-24 53 0 1760 0 1760 21 46 c37 80 93 132 179
166 23 9 377 11 1445 10 l1415 -2 45 -23z"/>
<path d="M2000 5615 l0 -135 64 0 c48 0 69 5 89 20 57 45 60 168 7 222 -25 25
-36 28 -94 28 l-66 0 0 -135z"/>
<path d="M3630 5700 l0 -60 69 0 c61 0 72 3 85 22 21 30 20 54 -4 78 -16 16
-33 20 -85 20 l-65 0 0 -60z"/>
<path d="M2180 4086 l0 -154 63 -6 c125 -14 190 -81 226 -233 51 -221 54 -825
5 -1067 -36 -176 -117 -256 -258 -256 l-36 0 0 -157 0 -156 98 6 c332 21 518
171 598 484 70 278 72 926 4 1194 -66 256 -193 403 -400 462 -55 16 -206 37
-267 37 l-33 0 0 -154z"/>
<path d="M3896 4228 c-47 -163 -90 -238 -170 -298 -95 -71 -211 -109 -361
-119 l-100 -6 -3 -167 -2 -168 270 0 270 0 2 -702 3 -703 218 -3 217 -2 0
1090 0 1090 -170 0 c-128 0 -172 -3 -174 -12z"/>
</g>
</svg>
